<svg xmlns="http://www.w3.org/2000/svg" viewBox="0 0 128 128" fill="none">
  <defs>
    <linearGradient id="hb-body" x1="24" y1="18" x2="100" y2="104" gradientUnits="userSpaceOnUse">
      <stop stop-color="#7AF5E4" />
      <stop offset="1" stop-color="#FF7BE5" />
    </linearGradient>
    <linearGradient id="hb-wing" x1="18" y1="26" x2="102" y2="58" gradientUnits="userSpaceOnUse">
      <stop stop-color="#FF9BF0" />
      <stop offset="1" stop-color="#7AF5E4" />
    </linearGradient>
  </defs>
  <rect x="10" y="10" width="108" height="108" rx="28" fill="url(#hb-body)" opacity="0.12" />
  <path
    d="M58 76c-1.1-10 7.9-19.6 18.2-21 9.7-1.4 17.9 6 18.9 15.7.5 5.1-1.4 12-6.8 15.5-5.4 3.5-11.8 4.3-17.7 3.5-7.9-1-11.9-6.6-12.6-13.7Z"
    fill="url(#hb-body)"
  />
  <path
    d="M46 62c10.1-7 25.2-13 39.6-13.3-7.9 3.8-14.2 10.5-16.4 18.3L46 62Z"
    fill="url(#hb-wing)"
  />
  <path d="M86 66l17-7-18.5 3.5Z" fill="#7AF5E4" />
  <path d="M55 77.5 39 96l18.5-5.5Z" fill="#FF7BE5" />
  <circle cx="77" cy="60" r="3.4" fill="#050918" />
</svg>
